<?xml version="1.0" encoding="UTF-8" standalone="no"?><svg xmlns:svg="http://www.w3.org/2000/svg" xmlns="http://www.w3.org/2000/svg" xmlns:xlink="http://www.w3.org/1999/xlink" version="1.0" width="64px" height="64px" viewBox="0 0 128 128" xml:space="preserve"><g><path d="M46 1.2l4.33 11.3a40.3 40.3 0 0 1 12.92-6.25c6.78-1.62 20 1.04 20 1.04S72.18.93 62.75.5A91.88 91.88 0 0 0 46 1.2z" fill="#5c5c5a" fill-opacity="1"/><path d="M46 1.2l4.33 11.3a40.3 40.3 0 0 1 12.92-6.25c6.78-1.62 20 1.04 20 1.04S72.18.93 62.75.5A91.88 91.88 0 0 0 46 1.2z" fill="#fafafa" fill-opacity="0.03" transform="rotate(45 64 64)"/><path d="M46 1.2l4.33 11.3a40.3 40.3 0 0 1 12.92-6.25c6.78-1.62 20 1.04 20 1.04S72.18.93 62.75.5A91.88 91.88 0 0 0 46 1.2z" fill="#eaeaea" fill-opacity="0.13" transform="rotate(90 64 64)"/><path d="M46 1.2l4.33 11.3a40.3 40.3 0 0 1 12.92-6.25c6.78-1.62 20 1.04 20 1.04S72.18.93 62.75.5A91.88 91.88 0 0 0 46 1.2z" fill="#d4d4d4" fill-opacity="0.26" transform="rotate(135 64 64)"/><path d="M46 1.2l4.33 11.3a40.3 40.3 0 0 1 12.92-6.25c6.78-1.62 20 1.04 20 1.04S72.18.93 62.75.5A91.88 91.88 0 0 0 46 1.2z" fill="#bcbcbb" fill-opacity="0.41" transform="rotate(180 64 64)"/><path d="M46 1.2l4.33 11.3a40.3 40.3 0 0 1 12.92-6.25c6.78-1.62 20 1.04 20 1.04S72.18.93 62.75.5A91.88 91.88 0 0 0 46 1.2z" fill="#a4a4a3" fill-opacity="0.56" transform="rotate(225 64 64)"/><path d="M46 1.2l4.33 11.3a40.3 40.3 0 0 1 12.92-6.25c6.78-1.62 20 1.04 20 1.04S72.18.93 62.75.5A91.88 91.88 0 0 0 46 1.2z" fill="#8b8b8a" fill-opacity="0.71" transform="rotate(270 64 64)"/><path d="M46 1.2l4.33 11.3a40.3 40.3 0 0 1 12.92-6.25c6.78-1.62 20 1.04 20 1.04S72.18.93 62.75.5A91.88 91.88 0 0 0 46 1.2z" fill="#757573" fill-opacity="0.85" transform="rotate(315 64 64)"/><animateTransform attributeName="transform" type="rotate" values="0 64 64;45 64 64;90 64 64;135 64 64;180 64 64;225 64 64;270 64 64;315 64 64" calcMode="discrete" dur="800ms" repeatCount="indefinite"></animateTransform></g></svg>